<?xml version="1.0"?>
<svg xmlns="http://www.w3.org/2000/svg" xmlns:xlink="http://www.w3.org/1999/xlink" version="1.1" id="Capa_1" x="0px" y="0px" width="512px" height="512px" viewBox="0 0 31.73 31.73" style="enable-background:new 0 0 31.73 31.73;" xml:space="preserve"><g><g>
	<g>
		<path d="M23.973,18.244c-3.724,0-6.743,3.02-6.743,6.743s3.02,6.743,6.743,6.743s6.743-3.02,6.743-6.743    S27.696,18.244,23.973,18.244z M22.526,29.135l-3.601-3.601l1.414-1.414l2.187,2.187l4.758-4.758l1.414,1.414L22.526,29.135z" data-original="#000000" class="active-path" data-old_color="#000000" fill="#FFFFFF"/>
		<path d="M2.883,28.016V8.924H9.94V1.867h13.362v15.411c0.221-0.019,0.443-0.034,0.67-0.034c0.408,0,0.807,0.041,1.197,0.102V0    H8.755l-7.74,8.171v21.711h16.965c-0.459-0.562-0.843-1.189-1.132-1.867H2.883z M8.072,3.436v3.621H4.643L8.072,3.436z" data-original="#000000" class="active-path" data-old_color="#000000" fill="#FFFFFF"/>
		<rect x="5.122" y="14.174" width="15.825" height="2.104" data-original="#000000" class="active-path" data-old_color="#000000" fill="#FFFFFF"/>
		<path d="M20.036,18.331H5.122v2.104h12.602C18.343,19.586,19.13,18.87,20.036,18.331z" data-original="#000000" class="active-path" data-old_color="#000000" fill="#FFFFFF"/>
		<path d="M5.122,24.779h11.119c0.02-0.73,0.133-1.438,0.342-2.104H5.122V24.779z" data-original="#000000" class="active-path" data-old_color="#000000" fill="#FFFFFF"/>
	</g>
</g></g> </svg>
